<?xml version="1.0" encoding="UTF-8"?>
<svg version="1.1" xmlns="http://www.w3.org/2000/svg" width="72" height="72">
<path d="M0 0 C3.96 0 7.92 0 12 0 C12 1.98 12 3.96 12 6 C12.556875 5.87238281 13.11375 5.74476562 13.6875 5.61328125 C17.55376337 5.11040578 20.05813752 5.2768565 23.21411133 7.69995117 C30.49422164 16.44144484 30.07172266 25.09738446 29.76831055 36.03662109 C29.68691334 39.02151338 29.66578677 42.00237536 29.65429688 44.98828125 C29.63106755 46.88806634 29.60449655 48.78781417 29.57421875 50.6875 C29.56460617 51.57808105 29.55499359 52.46866211 29.54508972 53.38623047 C29.51949478 54.2113916 29.49389984 55.03655273 29.4675293 55.88671875 C29.44132759 56.97279419 29.44132759 56.97279419 29.41459656 58.08081055 C28.87739102 60.56756347 28.01214146 61.4756543 26 63 C22.76953125 63.38818359 22.76953125 63.38818359 18.8125 63.3984375 C18.11358643 63.40130768 17.41467285 63.40417786 16.69458008 63.40713501 C15.21857899 63.40917425 13.74255079 63.40365403 12.26660156 63.39111328 C10.00784862 63.3750558 7.75088482 63.3909647 5.4921875 63.41015625 C4.05728772 63.40817379 2.62238905 63.40433006 1.1875 63.3984375 C-0.11832031 63.39505371 -1.42414062 63.39166992 -2.76953125 63.38818359 C-6 63 -6 63 -7.67565918 61.72332764 C-10.028008 58.66228197 -9.46787302 54.76918284 -9.46875 51.0546875 C-9.47636353 50.17023956 -9.48397705 49.28579163 -9.49182129 48.37454224 C-9.50263111 46.50004903 -9.50547181 44.62549555 -9.50097656 42.75097656 C-9.50001048 39.90585174 -9.54148858 37.06348092 -9.5859375 34.21875 C-9.59114965 32.39323475 -9.59383261 30.56771019 -9.59375 28.7421875 C-9.61014526 27.90122528 -9.62654053 27.06026306 -9.64343262 26.19381714 C-9.55374166 18.38187058 -6.22984477 13.34476716 -2 7 C-1.29187186 4.67891331 -0.61975848 2.34622853 0 0 Z M14 11 C14 14.96009225 15.40780183 16.14520759 17.875 19.1875 C18.59429687 20.08855469 19.31359375 20.98960938 20.0546875 21.91796875 C20.69664063 22.60503906 21.33859375 23.29210938 22 24 C22.66 24 23.32 24 24 24 C24.45466598 20.89311581 24.46669473 18.76409823 22.8046875 16.04296875 C21.27262377 14.15291023 19.92548864 12.49269532 18 11 C16.68 11 15.36 11 14 11 Z M-4 29 C-6.2380858 32.3571287 -6.25650054 33.51137364 -6.265625 37.4375 C-6.26820312 38.49710938 -6.27078125 39.55671875 -6.2734375 40.6484375 C-6.26570313 41.75445312 -6.25796875 42.86046875 -6.25 44 C-6.25773437 45.10601562 -6.26546875 46.21203125 -6.2734375 47.3515625 C-6.27085938 48.41117188 -6.26828125 49.47078125 -6.265625 50.5625 C-6.26336914 51.53316406 -6.26111328 52.50382812 -6.25878906 53.50390625 C-6.17003055 56.24972001 -6.17003055 56.24972001 -4 59 C-1.12392975 59.45100055 -1.12392975 59.45100055 2.25 59.36328125 C3.4978125 59.36263672 4.745625 59.36199219 6.03125 59.36132812 C7.3409375 59.34521484 8.650625 59.32910156 10 59.3125 C11.3096875 59.31572266 12.619375 59.31894531 13.96875 59.32226562 C20.5808906 59.80523157 20.5808906 59.80523157 26 57 C26.3115683 54.31473382 26.3115683 54.31473382 26.265625 51.1875 C26.26820312 50.02992187 26.27078125 48.87234375 26.2734375 47.6796875 C26.26183594 45.85824219 26.26183594 45.85824219 26.25 44 C26.25773437 42.78570312 26.26546875 41.57140625 26.2734375 40.3203125 C26.26957031 38.58394531 26.26957031 38.58394531 26.265625 36.8125 C26.26336914 35.74644531 26.26111328 34.68039063 26.25878906 33.58203125 C26.25880798 30.83676539 26.25880798 30.83676539 24 29 C19.35042025 28.53824354 14.66983724 28.67600926 10 28.6875 C8.03546875 28.66333008 8.03546875 28.66333008 6.03125 28.63867188 C4.7834375 28.63802734 3.535625 28.63738281 2.25 28.63671875 C0.52523438 28.63224731 0.52523438 28.63224731 -1.234375 28.62768555 C-2.14703125 28.75054932 -3.0596875 28.87341309 -4 29 Z " fill="#DC3B1E" transform="translate(25,3)"/>
<path d="M0 0 C3.69230769 0.69230769 3.69230769 0.69230769 5 2 C4.90913549 4.53541298 4.7629055 7.03554784 4.5625 9.5625 C4.51029297 10.27341797 4.45808594 10.98433594 4.40429688 11.71679688 C4.27425893 13.47821999 4.13773103 15.23916173 4 17 C2.68 17 1.36 17 0 17 C-1.13130884 13.60607349 -1.1329194 10.94665128 -1.125 7.375 C-1.12886719 5.62316406 -1.12886719 5.62316406 -1.1328125 3.8359375 C-1 1 -1 1 0 0 Z " fill="#DB391E" transform="translate(33,34)"/>
<path d="M0 0 C1.65 0 3.3 0 5 0 C5.38218767 1.65614657 5.71395102 3.32457024 6 5 C5 6 5 6 2.4375 6.0625 C1.2309375 6.0315625 1.2309375 6.0315625 0 6 C0 4.02 0 2.04 0 0 Z " fill="#DA331A" transform="translate(32,53)"/>
</svg>
