<?xml version="1.0" encoding="UTF-8"?>
<svg version="1.1" xmlns="http://www.w3.org/2000/svg" width="72" height="72">
<path d="M0 0 C1.65322266 0.01740234 1.65322266 0.01740234 3.33984375 0.03515625 C4.44457031 0.04417969 5.54929687 0.05320313 6.6875 0.0625 C7.54214844 0.07410156 8.39679687 0.08570313 9.27734375 0.09765625 C9.27734375 2.07765625 9.27734375 4.05765625 9.27734375 6.09765625 C10.43234375 5.89140625 11.58734375 5.68515625 12.77734375 5.47265625 C16.13053867 5.42483885 17.07276773 5.9039582 19.5546875 8.25390625 C24.87094161 14.94488791 26.43920284 18.63977872 26.48046875 27.15625 C26.48616882 28.05634293 26.4918689 28.95643585 26.4977417 29.88380432 C26.50719576 31.78946759 26.51372729 33.69514725 26.51757812 35.60083008 C26.52729325 38.51998275 26.55831642 41.43843426 26.58984375 44.35742188 C26.59637277 46.20702706 26.60162364 48.05663729 26.60546875 49.90625 C26.61781555 50.78131699 26.63016235 51.65638397 26.6428833 52.55796814 C26.6398822 53.37213699 26.6368811 54.18630585 26.63378906 55.02514648 C26.63925751 56.09864601 26.63925751 56.09864601 26.64483643 57.1938324 C26.16195831 59.69541931 25.29077013 60.57439848 23.27734375 62.09765625 C20.046875 62.50170898 20.046875 62.50170898 16.08984375 62.53125 C15.04147339 62.53911278 15.04147339 62.53911278 13.97192383 62.5471344 C12.49594449 62.55355072 11.019914 62.55222256 9.54394531 62.54370117 C7.28488275 62.53518467 5.0283443 62.56396163 2.76953125 62.59570312 C1.33463617 62.59731512 -0.10026338 62.59673764 -1.53515625 62.59375 C-2.84097656 62.59560303 -4.14679687 62.59745605 -5.4921875 62.59936523 C-8.72265625 62.09765625 -8.72265625 62.09765625 -10.63818359 60.60009766 C-12.21019586 56.97264928 -12.23015296 53.45208745 -12.26171875 49.5625 C-12.27407562 48.72860245 -12.2864325 47.8947049 -12.29916382 47.03553772 C-12.31871687 45.26961259 -12.32995985 43.50357866 -12.33349609 41.73754883 C-12.34748806 39.06725468 -12.41470776 36.40176426 -12.484375 33.73242188 C-12.60052235 24.45780084 -12.3598227 17.76654017 -6.31738281 10.20581055 C-4.02212987 7.17159297 -3.88479042 4.82674214 -3.72265625 1.09765625 C-2.72265625 0.09765625 -2.72265625 0.09765625 0 0 Z M-6.28491211 16.69726562 C-9.29556142 23.81771454 -8.46937859 31.56618787 -8.22265625 39.16015625 C-8.19607188 40.88862634 -8.17260856 42.61714739 -8.15234375 44.34570312 C-8.66635448 51.73220841 -8.66635448 51.73220841 -6.72265625 58.09765625 C-4.57706798 58.1854123 -2.42861204 58.20460844 -0.28125 58.1953125 C0.89381104 58.19281494 2.06887207 58.19031738 3.27954102 58.18774414 C4.78444092 58.17864014 6.28934082 58.16953613 7.83984375 58.16015625 C14.98640625 58.12921875 14.98640625 58.12921875 22.27734375 58.09765625 C22.27734375 48.52765625 22.27734375 38.95765625 22.27734375 29.09765625 C20.29734375 28.10765625 18.31734375 27.11765625 16.27734375 26.09765625 C15.94734375 25.43765625 15.61734375 24.77765625 15.27734375 24.09765625 C14.61734375 24.09765625 13.95734375 24.09765625 13.27734375 24.09765625 C12.27734375 22.09765625 11.27734375 20.09765625 10.27734375 18.09765625 C9.61734375 18.09765625 8.95734375 18.09765625 8.27734375 18.09765625 C7.94734375 15.45765625 7.61734375 12.81765625 7.27734375 10.09765625 C0.05814131 8.83112951 -2.32247222 10.69314916 -6.28491211 16.69726562 Z M11.27734375 11.09765625 C11.27734375 15.0577485 12.68514558 16.24286384 15.15234375 19.28515625 C15.87164062 20.18621094 16.5909375 21.08726563 17.33203125 22.015625 C17.97398438 22.70269531 18.6159375 23.38976563 19.27734375 24.09765625 C19.93734375 24.09765625 20.59734375 24.09765625 21.27734375 24.09765625 C20.69681181 17.98935694 20.69681181 17.98935694 17.27734375 13.09765625 C16.61734375 13.09765625 15.95734375 13.09765625 15.27734375 13.09765625 C15.27734375 12.43765625 15.27734375 11.77765625 15.27734375 11.09765625 C13.95734375 11.09765625 12.63734375 11.09765625 11.27734375 11.09765625 Z " fill="#DA3218" transform="translate(28.72265625,3.90234375)"/>
<path d="M0 0 C0.33 0 0.66 0 1 0 C1.01981934 0.95777344 1.03963867 1.91554688 1.06005859 2.90234375 C1.13668251 6.48836593 1.22530745 10.07401203 1.31738281 13.65966797 C1.35543978 15.20549035 1.39033132 16.75139428 1.421875 18.29736328 C1.46803654 20.53187018 1.5259398 22.76582671 1.5859375 25 C1.59748871 25.68054443 1.60903992 26.36108887 1.62094116 27.06225586 C1.76923207 31.98855058 2.68695263 36.28224384 4 41 C5.98 41 7.96 41 10 41 C8 43 8 43 4.5 43.25 C1 43 1 43 -1 41 C-1.18776167 37.99864387 -1.25550182 35.09112854 -1.23046875 32.08984375 C-1.23001053 31.20720352 -1.22955231 30.32456329 -1.2290802 29.41517639 C-1.22605687 27.54817359 -1.21816817 25.68117333 -1.20581055 23.81420898 C-1.18755226 20.94571061 -1.18530084 18.07753479 -1.18554688 15.20898438 C-1.18063188 13.39843469 -1.17480364 11.58788721 -1.16796875 9.77734375 C-1.16685593 8.91382797 -1.1657431 8.05031219 -1.16459656 7.16062927 C-1.11604615 1.11604615 -1.11604615 1.11604615 0 0 Z " fill="#DC3D1F" transform="translate(19,23)"/>
<path d="M0 0 C1.67542976 0.28604898 3.34385343 0.61781233 5 1 C5.18451025 13.66970387 5.18451025 13.66970387 4 19 C2.68 19 1.36 19 0 19 C-1.06307945 13.02017809 -1.35707262 7.07023451 -1 1 C-0.67 0.67 -0.34 0.34 0 0 Z " fill="#DA371C" transform="translate(34,31)"/>
<path d="M0 0 C3.63 0 7.26 0 11 0 C11 1.32 11 2.64 11 4 C7.37 4 3.74 4 0 4 C0 2.68 0 1.36 0 0 Z " fill="#DC3E1E" transform="translate(26,5)"/>
<path d="M0 0 C1.65 0.33 3.3 0.66 5 1 C4.67 2.65 4.34 4.3 4 6 C2.35 5.67 0.7 5.34 -1 5 C-0.67 3.35 -0.34 1.7 0 0 Z " fill="#DA3319" transform="translate(34,51)"/>
</svg>
