<?xml version="1.0" encoding="UTF-8"?>
<svg version="1.1" xmlns="http://www.w3.org/2000/svg" width="72" height="72">
<path d="M0 0 C3.3 0 6.6 0 10 0 C10.33 1.65 10.66 3.3 11 5 C11.886875 4.896875 12.77375 4.79375 13.6875 4.6875 C18.08071806 5.10195453 19.2103565 6.68258611 22 10 C22.53520264 10.54769043 23.07040527 11.09538086 23.62182617 11.65966797 C25.62517258 15.06163053 25.4097284 18.35972775 25.36328125 22.1953125 C25.36402901 23.37829422 25.36402901 23.37829422 25.36479187 24.58517456 C25.36245628 26.24772672 25.35275807 27.91028274 25.33618164 29.57275391 C25.31251818 32.12304087 25.31563299 34.67228688 25.32226562 37.22265625 C25.31669096 38.83854792 25.30958241 40.45443518 25.30078125 42.0703125 C25.30214836 43.2171904 25.30214836 43.2171904 25.30354309 44.38723755 C25.23105535 49.76894465 25.23105535 49.76894465 23 52 C20.234375 52.25878906 20.234375 52.25878906 16.75 52.265625 C14.87828125 52.26949219 14.87828125 52.26949219 12.96875 52.2734375 C11.00421875 52.26183594 11.00421875 52.26183594 9 52.25 C7.6903125 52.25773437 6.380625 52.26546875 5.03125 52.2734375 C3.7834375 52.27085938 2.535625 52.26828125 1.25 52.265625 C-0.47476562 52.26224121 -0.47476562 52.26224121 -2.234375 52.25878906 C-5 52 -5 52 -7 50 C-7.24901626 47.45229956 -7.37640963 45.01723878 -7.40625 42.46484375 C-7.41765015 41.71215714 -7.42905029 40.95947052 -7.4407959 40.18397522 C-7.45971009 38.58600489 -7.47276956 36.9879563 -7.48046875 35.38989258 C-7.49974054 32.97007906 -7.56168692 30.55377029 -7.625 28.13476562 C-7.81504076 14.0219071 -7.81504076 14.0219071 -2.38037109 7.68603516 C-0.43329435 5.30780523 -0.15450048 3.01275938 0 0 Z M12 9 C12.59283621 12.39192363 13.76743189 14.2107757 16.0625 16.75 C16.61035156 17.36359375 17.15820312 17.9771875 17.72265625 18.609375 C18.14417969 19.06828125 18.56570312 19.5271875 19 20 C19.66 19.67 20.32 19.34 21 19 C19.63356852 15.01457486 17.89890986 12.07460137 15 9 C14.01 9 13.02 9 12 9 Z " fill="#197136" transform="translate(27,8)"/>
</svg>
