<?xml version="1.0" encoding="UTF-8"?>
<svg version="1.1" xmlns="http://www.w3.org/2000/svg" width="72" height="72">
<path d="M0 0 C1.50046875 0.00386719 1.50046875 0.00386719 3.03125 0.0078125 C4.0315625 0.00523437 5.031875 0.00265625 6.0625 0 C8.53125 0.1328125 8.53125 0.1328125 9.53125 1.1328125 C9.57188832 2.79898365 9.573971 4.46669345 9.53125 6.1328125 C11.2946875 5.854375 11.2946875 5.854375 13.09375 5.5703125 C16.26087 5.53086439 17.24116766 5.85982627 19.5859375 8.06640625 C24.47500352 14.40596281 25.69566935 18.20332122 25.734375 26.19140625 C25.74007507 27.09149918 25.74577515 27.9915921 25.75164795 28.91896057 C25.76110201 30.82462384 25.76763354 32.7303035 25.77148438 34.63598633 C25.7811995 37.555139 25.81222267 40.47359051 25.84375 43.39257812 C25.85027902 45.24218331 25.85552989 47.09179354 25.859375 48.94140625 C25.8717218 49.81647324 25.8840686 50.69154022 25.89678955 51.59312439 C25.89378845 52.40729324 25.89078735 53.2214621 25.88769531 54.06030273 C25.89316376 55.13380226 25.89316376 55.13380226 25.89874268 56.22898865 C25.41634573 58.72808283 24.53962416 59.60816908 22.53125 61.1328125 C19.39257812 61.53686523 19.39257812 61.53686523 15.5625 61.56640625 C14.88578247 61.5716481 14.20906494 61.57688995 13.51184082 61.58229065 C12.08294038 61.58870608 10.65398709 61.58737994 9.22509766 61.57885742 C7.03843292 61.57034048 4.85437574 61.59911883 2.66796875 61.63085938 C1.27864662 61.63247137 -0.11068014 61.63189388 -1.5 61.62890625 C-2.76392578 61.63075928 -4.02785156 61.6326123 -5.33007812 61.63452148 C-8.46875 61.1328125 -8.46875 61.1328125 -10.37060547 59.62158203 C-11.93979961 56.06525365 -11.97591558 52.63905096 -12.0078125 48.81640625 C-12.02016937 48.00470474 -12.03252625 47.19300323 -12.04525757 46.35670471 C-12.06480851 44.63785996 -12.07605324 42.91890348 -12.07958984 41.19995117 C-12.0935792 38.60203046 -12.1607953 36.00905147 -12.23046875 33.41210938 C-12.34848877 24.23966818 -12.01298026 17.74533141 -6.06347656 10.25854492 C-3.77718645 7.2109748 -3.63115604 4.86815146 -3.46875 1.1328125 C-2.46875 0.1328125 -2.46875 0.1328125 0 0 Z M-4.40625 14.1328125 C-8.9890743 21.23209835 -7.95376293 27.95688018 -7.46875 36.1328125 C2.10125 36.1328125 11.67125 36.1328125 21.53125 36.1328125 C21.53125 33.4928125 21.53125 30.8528125 21.53125 28.1328125 C20.17966797 27.55853516 20.17966797 27.55853516 18.80078125 26.97265625 C15.18079644 24.93560386 13.58156554 23.07666211 11.21875 19.6953125 C10.20361328 18.27412109 10.20361328 18.27412109 9.16796875 16.82421875 C7.74211326 14.47955424 6.96771103 12.80850839 6.53125 10.1328125 C1.21520311 9.04790497 -1.08949103 10.08501278 -4.40625 14.1328125 Z M10.53125 11.1328125 C11.98037062 15.91491054 14.7992454 19.83763287 18.53125 23.1328125 C19.52125 23.1328125 20.51125 23.1328125 21.53125 23.1328125 C21.09218312 18.30307687 18.96518615 14.50016263 15.53125 11.1328125 C12.81653995 10.54512867 12.81653995 10.54512867 10.53125 11.1328125 Z " fill="#EA8711" transform="translate(28.46875,4.8671875)"/>
<path d="M0 0 C12.66970387 -0.18451025 12.66970387 -0.18451025 18 1 C18 1.33 18 1.66 18 2 C16.80761719 2.04898437 15.61523438 2.09796875 14.38671875 2.1484375 C12.82028932 2.22347604 11.25388421 2.2990234 9.6875 2.375 C8.90181641 2.4059375 8.11613281 2.436875 7.30664062 2.46875 C6.1706543 2.52675781 6.1706543 2.52675781 5.01171875 2.5859375 C4.31522217 2.6173584 3.61872559 2.6487793 2.90112305 2.68115234 C0.67467261 2.92118253 0.67467261 2.92118253 -2 5 C-1.34 3.35 -0.68 1.7 0 0 Z " fill="#EA8C24" transform="translate(26,10)"/>
</svg>
