<?xml version="1.0" encoding="UTF-8"?>
<svg version="1.1" xmlns="http://www.w3.org/2000/svg" width="240" height="240">
<path d="M0 0 C61.71 0 123.42 0 187 0 C180.24996107 7.87504541 180.24996107 7.87504541 177.23473644 10.8911047 C176.54762811 11.58082078 175.86051978 12.27053686 175.15258998 12.98115343 C174.41590518 13.71560751 173.67922037 14.45006159 172.92021179 15.20677185 C172.12358165 16.00496198 171.32695151 16.80315211 170.50618106 17.62552983 C167.84853004 20.28715489 165.18733655 22.94520871 162.52612305 25.60327148 C160.61507235 27.51512788 158.70476671 29.42772812 156.79441833 31.34028625 C152.15277461 35.98636584 147.50844473 40.62975116 142.86313095 45.272161 C139.08999108 49.04303988 135.31783156 52.81489685 131.54636574 56.58745003 C131.00904732 57.12492168 130.4717289 57.66239333 129.91812811 58.216152 C128.82656281 59.30803703 127.73499975 60.3999243 126.64343891 61.49181379 C116.42118594 71.71691473 106.19587606 81.93895427 95.96951047 92.15994186 C87.18781246 100.93716479 78.40875033 109.717017 69.6315918 118.4987793 C59.43715494 128.6985608 49.2411069 138.8967272 39.04245979 149.09229904 C37.95648957 150.17795071 36.87052144 151.26360446 35.78455544 152.34926033 C34.9830653 153.15051905 34.9830653 153.15051905 34.16538345 153.96796481 C30.3927807 157.73970265 26.62134261 161.51260268 22.85034752 165.2859478 C18.26200276 169.87708918 13.67189682 174.46646084 9.0794827 179.05353188 C6.73482056 181.39555631 4.39125115 183.73865614 2.04928589 186.08337784 C-0.48322643 188.61859731 -3.01875747 191.15075705 -5.55513 193.68211365 C-6.67688762 194.80721734 -6.67688762 194.80721734 -7.821307 195.95505041 C-8.4953766 196.62651226 -9.1694462 197.29797411 -9.86394215 197.98978329 C-10.44963594 198.57531473 -11.03532974 199.16084617 -11.63877183 199.764121 C-13 201 -13 201 -14 201 C-18.95559978 164.00986074 -18.95559978 164.00986074 -8.99243164 150.23822021 C-2.79392606 142.31391022 4.64806479 135.46899326 12.04885292 128.69260168 C15.74082792 125.26772549 19.3100906 121.71893007 22.89538574 118.18313599 C29.66711195 111.5406893 36.53815934 105.01237073 43.45435476 98.52084553 C51.33734832 91.11143627 59.09784718 83.57872797 66.85173321 76.03467536 C82.77103565 60.55147512 98.83371184 45.22487246 115 30 C113.45835175 30.07447357 113.45835175 30.07447357 111.88555908 30.15045166 C102.06529167 30.60556704 92.2502545 30.90382031 82.42056656 31.05958939 C77.36837837 31.14440308 72.32913151 31.27891726 67.28271484 31.53955078 C31.54300444 33.3277587 31.54300444 33.3277587 18.92382812 22.64648438 C11.80246944 16.20270682 5.50141818 8.86535837 0 1 C0 0.67 0 0.34 0 0 Z " fill="#CF6424" transform="translate(36,20)"/>
<path d="M0 0 C2.65679227 1.01294435 4.04745019 2.35973768 6.05778122 4.370574 C6.8289679 5.13474636 7.60015457 5.89891872 8.39471054 6.68624783 C9.23124664 7.53042767 10.06778275 8.37460751 10.92966843 9.24436855 C11.81782745 10.12887691 12.70598648 11.01338528 13.62105942 11.92469692 C16.05408309 14.35100059 18.48018961 16.78383896 20.9031744 19.22014403 C23.43817032 21.7664518 25.98086944 24.30504641 28.5225029 26.84472561 C32.78796301 31.1093029 37.04740211 35.37982171 41.30320358 39.65403652 C46.22861786 44.60063856 51.16282518 49.53833124 56.10195994 54.47123092 C60.84910099 59.21268524 65.5905635 63.959777 70.32924271 68.70968723 C72.34823591 70.73333352 74.36911126 72.75507259 76.39148331 74.77534199 C79.21087801 77.59251014 82.02189133 80.41794816 84.83201218 83.24436855 C85.6766452 84.08652416 86.52127823 84.92867977 87.3915062 85.79635525 C88.15141357 86.56334743 88.91132095 87.33033962 89.69425583 88.120574 C90.69306086 89.12245833 90.69306086 89.12245833 91.71204376 90.14458275 C93.12205124 91.80906582 93.12205124 91.80906582 93.12205124 93.80906582 C31.41205124 93.80906582 -30.29794876 93.80906582 -93.87794876 93.80906582 C-88.20661565 82.4663996 -78.38735798 70.58582295 -66.87794876 64.80906582 C-53.40908538 60.38599086 -37.84519568 62.02324799 -23.90431595 62.62889004 C-17.78234065 62.86211736 -11.65617302 62.90290373 -5.53060532 62.97746944 C3.69809832 63.11061546 12.88905597 63.48118681 22.12205124 63.80906582 C7.93205124 49.61906582 -6.25794876 35.42906582 -20.87794876 20.80906582 C-18.26254283 15.57825395 -14.5940402 12.11823851 -10.50294876 7.99656582 C-9.35052689 6.7948373 -9.35052689 6.7948373 -8.17482376 5.56883144 C-7.42974564 4.81666348 -6.68466751 4.06449551 -5.91701126 3.28953457 C-4.89921585 2.25155727 -4.89921585 2.25155727 -3.86085892 1.19261074 C-1.87794876 -0.19093418 -1.87794876 -0.19093418 0 0 Z " fill="#595858" transform="translate(129.87794876098633,127.19093418121338)"/>
<path d="M0 0 C2.86356097 1.29994696 4.92226181 2.67378073 7.13848877 4.89797974 C8.03022293 5.7855899 8.03022293 5.7855899 8.93997192 6.69113159 C9.58014252 7.33849274 10.22031311 7.98585388 10.87988281 8.65283203 C11.56321686 9.33587402 12.2465509 10.01891602 12.95059204 10.72265625 C15.20620976 12.97966638 17.45466222 15.2436763 19.703125 17.5078125 C21.26638892 19.07480686 22.83009523 20.64135999 24.39422607 22.20748901 C28.50858445 26.32948142 32.6169012 30.45744484 36.72399902 34.58666992 C40.91654166 38.79967584 45.11475588 43.00702158 49.3125 47.21484375 C57.54723528 55.4710249 65.77560065 63.73352357 74 72 C72.38223883 75.42482707 70.57656756 77.65690522 67.8671875 80.328125 C67.06152344 81.12734375 66.25585938 81.9265625 65.42578125 82.75 C64.58402344 83.575 63.74226563 84.4 62.875 85.25 C62.02550781 86.09046875 61.17601562 86.9309375 60.30078125 87.796875 C58.20495077 89.86915683 56.10459287 91.93662393 54 94 C52.4113467 92.63926174 50.82306686 91.2780863 49.23605347 89.91543579 C47.67720286 88.58010178 46.11485216 87.24884753 44.54983521 85.92074585 C37.22578591 79.67989157 30.07417461 73.27596783 23.0625 66.6875 C22.51399761 66.17270458 21.96549522 65.65790916 21.40037155 65.12751389 C-2.24359132 42.77469338 -2.24359132 42.77469338 -3.26966858 25.87623596 C-3.3304057 17.11720703 -2.09774505 8.48779918 0 0 Z " fill="#595858" transform="translate(22,20)"/>
</svg>
